<mxfile host="app.diagrams.net" modified="2022-03-11T03:07:24.983Z" agent="5.0 (Windows NT 10.0; Win64; x64) AppleWebKit/537.36 (KHTML, like Gecko) Chrome/99.0.4844.51 Safari/537.36" etag="GtDkReI8dJyNPhHIoeqE" version="17.1.1" type="github">
  <diagram id="04JsIz-P-Nu2YRoRQDy2" name="Page-1">
    <mxGraphModel dx="1185" dy="696" grid="1" gridSize="10" guides="1" tooltips="1" connect="1" arrows="1" fold="1" page="1" pageScale="1" pageWidth="827" pageHeight="1169" math="0" shadow="0">
      <root>
        <mxCell id="0" />
        <mxCell id="1" parent="0" />
        <mxCell id="6IOaq8h-y08QJQte3yia-1" value="IEHUB global on AWS" style="rounded=1;whiteSpace=wrap;html=1;" vertex="1" parent="1">
          <mxGeometry x="460" y="310" width="190" height="150" as="geometry" />
        </mxCell>
        <mxCell id="6IOaq8h-y08QJQte3yia-2" value="AWS SQS/SNS" style="rounded=1;whiteSpace=wrap;html=1;" vertex="1" parent="1">
          <mxGeometry x="495" y="320" width="120" height="40" as="geometry" />
        </mxCell>
        <mxCell id="6IOaq8h-y08QJQte3yia-4" style="edgeStyle=orthogonalEdgeStyle;rounded=0;orthogonalLoop=1;jettySize=auto;html=1;exitX=1;exitY=0.25;exitDx=0;exitDy=0;entryX=0;entryY=0.75;entryDx=0;entryDy=0;" edge="1" parent="1" source="6IOaq8h-y08QJQte3yia-3" target="6IOaq8h-y08QJQte3yia-2">
          <mxGeometry relative="1" as="geometry">
            <mxPoint x="490" y="348" as="targetPoint" />
            <Array as="points">
              <mxPoint x="280" y="350" />
            </Array>
          </mxGeometry>
        </mxCell>
        <mxCell id="6IOaq8h-y08QJQte3yia-15" style="edgeStyle=orthogonalEdgeStyle;rounded=0;orthogonalLoop=1;jettySize=auto;html=1;" edge="1" parent="1" source="6IOaq8h-y08QJQte3yia-3" target="6IOaq8h-y08QJQte3yia-13">
          <mxGeometry relative="1" as="geometry">
            <Array as="points">
              <mxPoint x="340" y="420" />
              <mxPoint x="340" y="420" />
            </Array>
          </mxGeometry>
        </mxCell>
        <mxCell id="6IOaq8h-y08QJQte3yia-3" value="SDEX global on AWS" style="rounded=1;whiteSpace=wrap;html=1;" vertex="1" parent="1">
          <mxGeometry x="140" y="312" width="140" height="318" as="geometry" />
        </mxCell>
        <mxCell id="6IOaq8h-y08QJQte3yia-5" value="IEHUB China on Alibaba" style="rounded=1;whiteSpace=wrap;html=1;" vertex="1" parent="1">
          <mxGeometry x="460" y="480" width="190" height="150" as="geometry" />
        </mxCell>
        <mxCell id="6IOaq8h-y08QJQte3yia-6" value="Alibaba MNS" style="rounded=1;whiteSpace=wrap;html=1;" vertex="1" parent="1">
          <mxGeometry x="495" y="490" width="120" height="40" as="geometry" />
        </mxCell>
        <mxCell id="6IOaq8h-y08QJQte3yia-7" style="edgeStyle=orthogonalEdgeStyle;rounded=0;orthogonalLoop=1;jettySize=auto;html=1;exitX=1;exitY=0.25;exitDx=0;exitDy=0;entryX=0;entryY=0.75;entryDx=0;entryDy=0;" edge="1" parent="1">
          <mxGeometry relative="1" as="geometry">
            <mxPoint x="280" y="551.5" as="sourcePoint" />
            <mxPoint x="495" y="510" as="targetPoint" />
            <Array as="points">
              <mxPoint x="280" y="510" />
            </Array>
          </mxGeometry>
        </mxCell>
        <mxCell id="6IOaq8h-y08QJQte3yia-9" value="MNS URL" style="text;html=1;strokeColor=none;fillColor=none;align=center;verticalAlign=middle;whiteSpace=wrap;rounded=0;" vertex="1" parent="1">
          <mxGeometry x="340" y="490" width="60" height="20" as="geometry" />
        </mxCell>
        <mxCell id="6IOaq8h-y08QJQte3yia-10" value="Alibaba AK" style="text;html=1;strokeColor=none;fillColor=none;align=center;verticalAlign=middle;whiteSpace=wrap;rounded=0;" vertex="1" parent="1">
          <mxGeometry x="335" y="510" width="70" height="20" as="geometry" />
        </mxCell>
        <mxCell id="6IOaq8h-y08QJQte3yia-11" value="SQS/SNS URL" style="text;html=1;strokeColor=none;fillColor=none;align=center;verticalAlign=middle;whiteSpace=wrap;rounded=0;" vertex="1" parent="1">
          <mxGeometry x="325" y="330" width="90" height="20" as="geometry" />
        </mxCell>
        <mxCell id="6IOaq8h-y08QJQte3yia-12" value="AWS AK" style="text;html=1;strokeColor=none;fillColor=none;align=center;verticalAlign=middle;whiteSpace=wrap;rounded=0;" vertex="1" parent="1">
          <mxGeometry x="340" y="353" width="60" height="20" as="geometry" />
        </mxCell>
        <mxCell id="6IOaq8h-y08QJQte3yia-13" value="Marketplace API" style="rounded=1;whiteSpace=wrap;html=1;" vertex="1" parent="1">
          <mxGeometry x="500" y="400" width="110" height="40" as="geometry" />
        </mxCell>
        <mxCell id="6IOaq8h-y08QJQte3yia-14" value="Marketplace API" style="rounded=1;whiteSpace=wrap;html=1;" vertex="1" parent="1">
          <mxGeometry x="500" y="570" width="110" height="40" as="geometry" />
        </mxCell>
        <mxCell id="6IOaq8h-y08QJQte3yia-17" value="/tenants" style="text;html=1;strokeColor=none;fillColor=none;align=center;verticalAlign=middle;whiteSpace=wrap;rounded=0;" vertex="1" parent="1">
          <mxGeometry x="345" y="400" width="60" height="20" as="geometry" />
        </mxCell>
        <mxCell id="6IOaq8h-y08QJQte3yia-19" value="/validateTenant" style="text;html=1;strokeColor=none;fillColor=none;align=center;verticalAlign=middle;whiteSpace=wrap;rounded=0;" vertex="1" parent="1">
          <mxGeometry x="345" y="420" width="60" height="20" as="geometry" />
        </mxCell>
        <mxCell id="6IOaq8h-y08QJQte3yia-20" value="/tenants" style="text;html=1;strokeColor=none;fillColor=none;align=center;verticalAlign=middle;whiteSpace=wrap;rounded=0;" vertex="1" parent="1">
          <mxGeometry x="345" y="570" width="60" height="20" as="geometry" />
        </mxCell>
        <mxCell id="6IOaq8h-y08QJQte3yia-21" value="/validateTenant" style="text;html=1;strokeColor=none;fillColor=none;align=center;verticalAlign=middle;whiteSpace=wrap;rounded=0;" vertex="1" parent="1">
          <mxGeometry x="345" y="590" width="60" height="20" as="geometry" />
        </mxCell>
        <mxCell id="6IOaq8h-y08QJQte3yia-22" style="edgeStyle=orthogonalEdgeStyle;rounded=0;orthogonalLoop=1;jettySize=auto;html=1;" edge="1" parent="1">
          <mxGeometry relative="1" as="geometry">
            <mxPoint x="280" y="589.3100000000002" as="sourcePoint" />
            <mxPoint x="500" y="589.3100000000002" as="targetPoint" />
            <Array as="points">
              <mxPoint x="340" y="589.31" />
              <mxPoint x="340" y="589.31" />
            </Array>
          </mxGeometry>
        </mxCell>
        <mxCell id="6IOaq8h-y08QJQte3yia-23" value="Auth0 tech user AK" style="text;html=1;strokeColor=none;fillColor=none;align=center;verticalAlign=middle;whiteSpace=wrap;rounded=0;" vertex="1" parent="1">
          <mxGeometry x="315" y="610" width="120" height="20" as="geometry" />
        </mxCell>
        <mxCell id="6IOaq8h-y08QJQte3yia-24" value="Auth0 tech user AK" style="text;html=1;strokeColor=none;fillColor=none;align=center;verticalAlign=middle;whiteSpace=wrap;rounded=0;" vertex="1" parent="1">
          <mxGeometry x="315" y="440" width="120" height="20" as="geometry" />
        </mxCell>
        <mxCell id="6IOaq8h-y08QJQte3yia-26" value="CN orders connect IEHUB China for process" style="text;html=1;strokeColor=none;fillColor=none;align=center;verticalAlign=middle;whiteSpace=wrap;rounded=0;" vertex="1" parent="1">
          <mxGeometry x="150" y="530" width="120" height="40" as="geometry" />
        </mxCell>
        <mxCell id="6IOaq8h-y08QJQte3yia-27" value="Non-CN orders connect IEHUB global for process" style="text;html=1;strokeColor=none;fillColor=none;align=center;verticalAlign=middle;whiteSpace=wrap;rounded=0;" vertex="1" parent="1">
          <mxGeometry x="150" y="360" width="120" height="50" as="geometry" />
        </mxCell>
        <mxCell id="6IOaq8h-y08QJQte3yia-30" value="" style="endArrow=none;dashed=1;html=1;rounded=0;exitX=1;exitY=0.5;exitDx=0;exitDy=0;" edge="1" parent="1" source="6IOaq8h-y08QJQte3yia-3">
          <mxGeometry width="50" height="50" relative="1" as="geometry">
            <mxPoint x="100" y="490" as="sourcePoint" />
            <mxPoint x="670" y="470" as="targetPoint" />
          </mxGeometry>
        </mxCell>
      </root>
    </mxGraphModel>
  </diagram>
</mxfile>
